<svg xmlns="http://www.w3.org/2000/svg" viewBox="0 0 240 210"><ellipse cx="120" cy="194" rx="112" ry="11" fill="#c3d8d4"/><g stroke="#835742" stroke-width="3" stroke-linejoin="round" stroke-linecap="round"><g transform="translate(0 143)"><path d="M18 21H222V36Q221 56 197 57H44Q20 55 18 36Z" fill="#edb263" /><path d="M26 29H214" fill="none" stroke="#ffd993" stroke-width="8"/></g><g transform="translate(0 118)"><path d="M23 18Q118 10 219 18Q237 24 218 46Q120 55 25 46Q8 37 23 18Z" fill="#845444" /><path d="M40 29l22 5m19 -7l24 8m21 -8l23 8m20 -8l23 4" fill="none" stroke="#ae7560" stroke-width="5"/></g><g transform="translate(0 93)"><path d="M18 21L190 12L225 37L152 44L139 58L109 45L39 48Z" fill="#f6ce56" /><path d="M45 26L173 21" fill="none" stroke="#fff0a4" stroke-width="4"/></g><g transform="translate(0 68)"><ellipse cx="120" cy="32" rx="105" ry="23" fill="#eb7567"/><path d="M28 33Q120 52 211 32" fill="none" stroke="#b94e47"/><path d="M53 27l7 5" fill="none" stroke="#ffd38d" stroke-width="4"/><path d="M84 27l7 5" fill="none" stroke="#ffd38d" stroke-width="4"/><path d="M115 27l7 5" fill="none" stroke="#ffd38d" stroke-width="4"/><path d="M146 27l7 5" fill="none" stroke="#ffd38d" stroke-width="4"/><path d="M177 27l7 5" fill="none" stroke="#ffd38d" stroke-width="4"/></g><g transform="translate(0 43)"><path d="M15 27Q24 13 44 23Q59 10 80 21Q99 10 120 21Q141 9 159 23Q184 10 200 24Q230 14 227 34Q226 49 205 41Q184 55 163 40Q143 55 123 41Q96 54 80 39Q60 53 43 38Q18 51 15 27Z" fill="#7dbb59" /><path d="M35 30Q120 41 205 30" fill="none" stroke="#b7d985" stroke-width="4"/></g><g transform="translate(0 18)"><path d="M18 55Q24 8 120 7Q215 8 222 55Z" fill="#efb261" /><path d="M31 47Q47 20 87 19" fill="none" stroke="#ffce81" stroke-width="6"/><path d="M57 38l5 -3" fill="none" stroke="#fff3c6" stroke-width="4"/><path d="M91 24l5 -3" fill="none" stroke="#fff3c6" stroke-width="4"/><path d="M125 38l5 -3" fill="none" stroke="#fff3c6" stroke-width="4"/><path d="M159 24l5 -3" fill="none" stroke="#fff3c6" stroke-width="4"/><path d="M188 38l5 -3" fill="none" stroke="#fff3c6" stroke-width="4"/></g></g></svg>
