<svg xmlns="http://www.w3.org/2000/svg" viewBox="0 0 240 160"><ellipse cx="120" cy="145" rx="103" ry="7" fill="#31465a" opacity=".09"/><g stroke="#384e60" stroke-width="4" stroke-linejoin="round" stroke-linecap="round"><path d="M24 119V72Q25 51 51 51H150Q181 51 219 110L222 124H24Z" fill="#f9f6e6" /><path d="M156 65Q178 71 197 96H155Z" fill="#bce9f3" /><rect x="36" y="67" width="25" height="23" rx="4" fill="#bce9f3"/><rect x="72" y="67" width="25" height="23" rx="4" fill="#bce9f3"/><rect x="108" y="67" width="25" height="23" rx="4" fill="#bce9f3"/><path d="M26 106H202" fill="none" stroke="#d57266" stroke-width="8"/><circle cx="59" cy="130" r="11" fill="#31465a"/><circle cx="59" cy="130" r="5.0600000000000005" fill="#e3edf0" stroke-width="3"/><circle cx="171" cy="130" r="11" fill="#31465a"/><circle cx="171" cy="130" r="5.0600000000000005" fill="#e3edf0" stroke-width="3"/><rect x="17" y="140" width="207" height="7" rx="2" fill="#839ca5"/></g></svg>
