<svg xmlns="http://www.w3.org/2000/svg" viewBox="0 0 240 160"><ellipse cx="120" cy="145" rx="103" ry="7" fill="#31465a" opacity=".09"/><g stroke="#384e60" stroke-width="4" stroke-linejoin="round" stroke-linecap="round"><path d="M21 112V98Q21 85 43 84L69 59Q73 55 85 55H137Q147 55 155 65L176 84L205 89Q220 92 220 106V117H21Z" fill="#ffcf54" /><path d="M78 63H107V83H58Z" fill="#bce9f3" /><path d="M115 63H138L156 83H115Z" fill="#bce9f3" /><path d="M112 91V113M126 94H137" fill="#fff" stroke-width="3"/><rect x="204" y="95" width="14" height="9" rx="3" fill="#fff4b2"/><rect x="22" y="98" width="9" height="9" rx="3" fill="#ff706c"/><circle cx="57" cy="124" r="18" fill="#31465a"/><circle cx="57" cy="124" r="8.280000000000001" fill="#e3edf0" stroke-width="3"/><circle cx="181" cy="124" r="18" fill="#31465a"/><circle cx="181" cy="124" r="8.280000000000001" fill="#e3edf0" stroke-width="3"/><rect x="96" y="44" width="38" height="12" rx="3" fill="#fff9d9"/><rect x="76" y="103" width="12" height="9" rx="0" fill="#31465a"/><rect x="88" y="103" width="12" height="9" rx="0" fill="#fff9d9"/><rect x="100" y="103" width="12" height="9" rx="0" fill="#31465a"/><rect x="112" y="103" width="12" height="9" rx="0" fill="#fff9d9"/><rect x="124" y="103" width="12" height="9" rx="0" fill="#31465a"/><rect x="136" y="103" width="12" height="9" rx="0" fill="#fff9d9"/></g></svg>
